<svg width="120" height="120" viewBox="0 0 120 120" fill="none" xmlns="http://www.w3.org/2000/svg">
<path d="M103.816 62.5431C105.785 59.9415 106.875 56.754 106.875 53.4376C106.875 48.1759 103.934 43.1954 99.1992 40.4181C97.9804 39.7032 96.5927 39.3269 95.1797 39.3282H67.0781L67.7813 24.9259C67.9453 21.4454 66.7148 18.1407 64.3242 15.6212C63.151 14.3793 61.7356 13.3913 60.1654 12.718C58.5953 12.0448 56.9037 11.7008 55.1953 11.7071C49.1016 11.7071 43.7109 15.8087 42.0938 21.6798L32.0273 58.1251H16.875C14.8008 58.1251 13.125 59.8009 13.125 61.8751V104.531C13.125 106.606 14.8008 108.281 16.875 108.281H87.3398C88.418 108.281 89.4727 108.07 90.4453 107.649C96.0234 105.27 99.6211 99.8204 99.6211 93.7735C99.6211 92.297 99.4102 90.8438 98.9883 89.4376C100.957 86.836 102.047 83.6485 102.047 80.3321C102.047 78.8556 101.836 77.4024 101.414 75.9962C103.383 73.3946 104.473 70.2071 104.473 66.8907C104.449 65.4141 104.238 63.9493 103.816 62.5431ZM21.5625 99.8438V66.5626H31.0547V99.8438H21.5625ZM96.1406 58.4767L93.5742 60.7032L95.2031 63.6798C95.7398 64.6603 96.018 65.7612 96.0117 66.879C96.0117 68.8126 95.168 70.6524 93.7148 71.9181L91.1484 74.1446L92.7773 77.1212C93.314 78.1017 93.5923 79.2027 93.5859 80.3204C93.5859 82.254 92.7422 84.0938 91.2891 85.3595L88.7227 87.586L90.3516 90.5626C90.8882 91.5431 91.1665 92.6441 91.1602 93.7618C91.1602 96.3868 89.6133 98.754 87.2227 99.8321H38.5547V66.1876L50.2148 23.9415C50.5155 22.8587 51.1609 21.9034 52.0533 21.2204C52.9457 20.5373 54.0364 20.1638 55.1602 20.1563C56.0508 20.1563 56.9297 20.4141 57.6328 20.9415C58.793 21.8087 59.4141 23.1212 59.3438 24.5157L58.2188 47.7657H95.0625C97.1484 49.0431 98.4375 51.1993 98.4375 53.4376C98.4375 55.3712 97.5938 57.1993 96.1406 58.4767Z" fill="black"/>
</svg>
